# xmcd CD database file
#
# Track frame offsets:
#	150
#	12152
#	25637
#	39294
#	52962
#	66463
#	78920
#	90980
#	103608
#	114267
#	127924
#	142631
#	154862
#	167127
#	180946
#	195108
#	207690
#	220301
#	233589
#
# Disc length: 3303 seconds
#
# Revision: 0
# Processed by: cddbd v1.4PL0 Copyright (c) Steve Scherf et al.
# Submitted via: CDex 1.40Release
#
DISCID=e10ce513
DTITLE=T-Bone Walker - Best Of
DYEAR=2000
DGENRE=Blues
TTITLE0=Bobby Sox Blues 1.
TTITLE1=Call it Stormy Monday 2.
TTITLE2=I'm Waiting For Your Call 3.
TTITLE3=Description Blues 4.
TTITLE4=T-Bone Shuffle 5.
TTITLE5=West Side Baby 6.
TTITLE6=Midnight Blues 7.
TTITLE7=Long Skirt Baby Blues 8
TTITLE8=Lonesome Woman Blues 9.
TTITLE9=Go Back To The One You Love 10
TTITLE10=I Got A Break Baby 11
TTITLE11=No Worry Blues 12
TTITLE12=I'm In An Awful Mood 13
TTITLE13=Don't Give Me The Runaround 14
TTITLE14=First Love Blues 15
TTITLE15=Inspiration Blues 16
TTITLE16=I Want A Little Girl 17
TTITLE17=I'm Still In Love With You 18
TTITLE18=Goodbye Blues 19
EXTD=YEAR: 2000 ID3G: 0
EXTT0=
EXTT1=
EXTT2=
EXTT3=
EXTT4=
EXTT5=
EXTT6=
EXTT7=
EXTT8=
EXTT9=
EXTT10=
EXTT11=
EXTT12=
EXTT13=
EXTT14=
EXTT15=
EXTT16=
EXTT17=
EXTT18=
PLAYORDER=
